General
Complete name                            : Celeste and Jesse Forever (Portable).m4v
Format                                   : MPEG-4
Format profile                           : Base Media / Version 2
Codec ID                                 : mp42
File size                                : 612 MiB
Duration                                 : 1h 32mn
Overall bit rate mode                    : Variable
Overall bit rate                         : 927 Kbps
Movie name                               : Celeste & Jesse Forever
Performer                                : Rashida Jones, Andy Samberg, Elijah Wood, Emma Roberts, Ari Graynor, Eric Christian Olsen, Janel Parrish, Chris Messina
Genre                                    : Drama, Comedy, Romance
Recorded date                            : 2012-08-03
Encoded date                             : UTC 2013-04-06 19:13:19
Tagged date                              : UTC 2013-04-07 17:52:44
Writing application                      : HandBrake 5384svn 2013040601
Cover                                    : Yes
desc                                     : Celeste and Jesse met in high school and got married young. They laugh at the same jokes and finish each otherΓÇÖs sentences. They are forever linked in their friendsΓÇÖ minds as the perfect couple ΓÇô she, a high-powered businesswoman and budding novelist; he, a free spirit who keeps things from getting boring. Their only problem is that they have decided to get divorced. Can their perfect relationship withstand this minor setback?

Video
ID                                       : 1
Format                                   : AVC
Format/Info                              : Advanced Video Codec
Format profile                           : High@L3.1
Format settings, CABAC                   : Yes
Format settings, ReFrames                : 4 frames
Codec ID                                 : avc1
Codec ID/Info                            : Advanced Video Coding
Duration                                 : 1h 32mn
Bit rate mode                            : Variable
Bit rate                                 : 755 Kbps
Width                                    : 960 pixels
Height                                   : 400 pixels
Display aspect ratio                     : 2.40:1
Frame rate mode                          : Variable
Frame rate                               : 23.976 fps
Minimum frame rate                       : 23.256 fps
Maximum frame rate                       : 30.000 fps
Color space                              : YUV
Chroma subsampling                       : 4:2:0
Bit depth                                : 8 bits
Scan type                                : Progressive
Bits/(Pixel*Frame)                       : 0.082
Stream size                              : 498 MiB (81%)
Writing library                          : x264 core 130
Encoding settings                        : cabac=1 / ref=4 / deblock=1:0:0 / analyse=0x3:0x133 / me=umh / subme=10 / psy=1 / psy_rd=1.00:0.15 / mixed_ref=1 / me_range=32 / chroma_me=1 / trellis=2 / 8x8dct=1 / cqm=0 / deadzone=21,11 / fast_pskip=1 / chroma_qp_offset=-3 / threads=12 / lookahead_threads=1 / sliced_threads=0 / nr=0 / decimate=1 / interlaced=0 / bluray_compat=0 / constrained_intra=0 / bframes=4 / b_pyramid=2 / b_adapt=2 / b_bias=0 / direct=3 / weightb=1 / open_gop=0 / weightp=2 / keyint=300 / keyint_min=30 / scenecut=40 / intra_refresh=0 / rc_lookahead=60 / rc=crf / mbtree=1 / crf=19.0 / qcomp=0.60 / qpmin=0 / qpmax=69 / qpstep=4 / vbv_maxrate=17500 / vbv_bufsize=17500 / crf_max=0.0 / nal_hrd=none / ip_ratio=1.40 / aq=1:1.00
Language                                 : English
Encoded date                             : UTC 2013-04-06 19:13:19
Tagged date                              : UTC 2013-04-06 20:05:04
Color primaries                          : BT.709
Transfer characteristics                 : BT.709
Matrix coefficients                      : BT.709

Audio
ID                                       : 2
Format                                   : AAC
Format/Info                              : Advanced Audio Codec
Format profile                           : LC
Codec ID                                 : 40
Duration                                 : 1h 32mn
Bit rate mode                            : Variable
Bit rate                                 : 165 Kbps
Maximum bit rate                         : 278 Kbps
Channel(s)                               : 2 channels
Channel positions                        : Front: L R
Sampling rate                            : 48.0 KHz
Compression mode                         : Lossy
Delay relative to video                  : 83ms
Stream size                              : 109 MiB (18%)
Language                                 : English
Encoded date                             : UTC 2013-04-06 19:13:19
Tagged date                              : UTC 2013-04-06 20:05:04